<mxfile host="65bd71144e">
    <diagram id="oGxF6eXHC-T6GBhbiOQn" name="ページ1">
        <mxGraphModel dx="467" dy="467" grid="1" gridSize="10" guides="1" tooltips="1" connect="1" arrows="1" fold="1" page="1" pageScale="1" pageWidth="827" pageHeight="1169" math="0" shadow="0">
            <root>
                <mxCell id="0"/>
                <mxCell id="1" parent="0"/>
                <mxCell id="j-Vtjt26cpnxTgErVdjl-1" value="学生" style="shape=umlActor;verticalLabelPosition=bottom;verticalAlign=top;html=1;" vertex="1" parent="1">
                    <mxGeometry x="60" y="90" width="50" height="100" as="geometry"/>
                </mxCell>
                <mxCell id="j-Vtjt26cpnxTgErVdjl-2" value="メニュー画面" style="shape=umlBoundary;whiteSpace=wrap;html=1;fillColor=#d5e8d4;strokeColor=#82b366;" vertex="1" parent="1">
                    <mxGeometry x="250" y="40" width="100" height="80" as="geometry"/>
                </mxCell>
                <mxCell id="j-Vtjt26cpnxTgErVdjl-3" value="表示" style="ellipse;shape=umlControl;whiteSpace=wrap;html=1;fillColor=#f8cecc;strokeColor=#b85450;" vertex="1" parent="1">
                    <mxGeometry x="450" y="60" width="80" height="90" as="geometry"/>
                </mxCell>
                <mxCell id="j-Vtjt26cpnxTgErVdjl-4" value="学生登録画面" style="shape=umlBoundary;whiteSpace=wrap;html=1;fillColor=#d5e8d4;strokeColor=#82b366;" vertex="1" parent="1">
                    <mxGeometry x="230" y="230" width="100" height="80" as="geometry"/>
                </mxCell>
                <mxCell id="j-Vtjt26cpnxTgErVdjl-5" value="学生情報登録" style="ellipse;shape=umlControl;whiteSpace=wrap;html=1;fillColor=#f8cecc;strokeColor=#b85450;" vertex="1" parent="1">
                    <mxGeometry x="445" y="225" width="85" height="90" as="geometry"/>
                </mxCell>
                <mxCell id="j-Vtjt26cpnxTgErVdjl-7" value="" style="endArrow=classic;html=1;rounded=0;entryX=-0.013;entryY=0.496;entryDx=0;entryDy=0;entryPerimeter=0;" edge="1" parent="1" target="j-Vtjt26cpnxTgErVdjl-2">
                    <mxGeometry width="50" height="50" relative="1" as="geometry">
                        <mxPoint x="130" y="130" as="sourcePoint"/>
                        <mxPoint x="430" y="240" as="targetPoint"/>
                    </mxGeometry>
                </mxCell>
                <mxCell id="j-Vtjt26cpnxTgErVdjl-8" value="メニュー画面をクリックする" style="rounded=0;whiteSpace=wrap;html=1;fillColor=none;strokeColor=none;" vertex="1" parent="1">
                    <mxGeometry x="109" y="60" width="120" height="60" as="geometry"/>
                </mxCell>
                <mxCell id="j-Vtjt26cpnxTgErVdjl-9" value="" style="endArrow=classic;html=1;rounded=0;exitX=1.007;exitY=0.663;exitDx=0;exitDy=0;exitPerimeter=0;" edge="1" parent="1" source="j-Vtjt26cpnxTgErVdjl-2">
                    <mxGeometry width="50" height="50" relative="1" as="geometry">
                        <mxPoint x="380" y="290" as="sourcePoint"/>
                        <mxPoint x="447" y="100" as="targetPoint"/>
                    </mxGeometry>
                </mxCell>
                <mxCell id="j-Vtjt26cpnxTgErVdjl-10" value="" style="endArrow=classic;html=1;rounded=0;entryX=0.013;entryY=0.438;entryDx=0;entryDy=0;entryPerimeter=0;" edge="1" parent="1" target="j-Vtjt26cpnxTgErVdjl-4">
                    <mxGeometry width="50" height="50" relative="1" as="geometry">
                        <mxPoint x="130" y="150" as="sourcePoint"/>
                        <mxPoint x="430" y="240" as="targetPoint"/>
                    </mxGeometry>
                </mxCell>
                <mxCell id="j-Vtjt26cpnxTgErVdjl-11" value="学生情報を入力する" style="rounded=0;whiteSpace=wrap;html=1;strokeColor=none;fillColor=none;" vertex="1" parent="1">
                    <mxGeometry x="115" y="202" width="70" height="60" as="geometry"/>
                </mxCell>
                <mxCell id="j-Vtjt26cpnxTgErVdjl-12" value="" style="endArrow=classic;html=1;rounded=0;exitX=0.025;exitY=0.774;exitDx=0;exitDy=0;exitPerimeter=0;entryX=0.833;entryY=0.121;entryDx=0;entryDy=0;entryPerimeter=0;" edge="1" parent="1" source="j-Vtjt26cpnxTgErVdjl-3" target="j-Vtjt26cpnxTgErVdjl-4">
                    <mxGeometry width="50" height="50" relative="1" as="geometry">
                        <mxPoint x="380" y="290" as="sourcePoint"/>
                        <mxPoint x="430" y="240" as="targetPoint"/>
                    </mxGeometry>
                </mxCell>
                <mxCell id="j-Vtjt26cpnxTgErVdjl-13" value="" style="endArrow=classic;html=1;rounded=0;exitX=1.027;exitY=0.529;exitDx=0;exitDy=0;exitPerimeter=0;entryX=-0.024;entryY=0.581;entryDx=0;entryDy=0;entryPerimeter=0;" edge="1" parent="1" source="j-Vtjt26cpnxTgErVdjl-4" target="j-Vtjt26cpnxTgErVdjl-5">
                    <mxGeometry width="50" height="50" relative="1" as="geometry">
                        <mxPoint x="380" y="290" as="sourcePoint"/>
                        <mxPoint x="430" y="240" as="targetPoint"/>
                    </mxGeometry>
                </mxCell>
                <mxCell id="j-Vtjt26cpnxTgErVdjl-14" value="学生オブジェクト" style="ellipse;shape=umlEntity;whiteSpace=wrap;html=1;fillColor=#dae8fc;strokeColor=#6c8ebf;" vertex="1" parent="1">
                    <mxGeometry x="612" y="185" width="90" height="90" as="geometry"/>
                </mxCell>
                <mxCell id="j-Vtjt26cpnxTgErVdjl-15" value="" style="endArrow=classic;startArrow=classic;html=1;rounded=0;entryX=-0.015;entryY=0.659;entryDx=0;entryDy=0;entryPerimeter=0;" edge="1" parent="1" target="j-Vtjt26cpnxTgErVdjl-14">
                    <mxGeometry width="50" height="50" relative="1" as="geometry">
                        <mxPoint x="530" y="270" as="sourcePoint"/>
                        <mxPoint x="500" y="240" as="targetPoint"/>
                    </mxGeometry>
                </mxCell>
                <mxCell id="2" value="①境界オブジェクト&lt;div&gt;②制御&lt;span style=&quot;color: rgb(0, 0, 0); background-color: transparent;&quot;&gt;オブジェクト&lt;/span&gt;&lt;/div&gt;&lt;div&gt;&lt;span style=&quot;color: rgb(0, 0, 0); background-color: transparent;&quot;&gt;③実態&lt;/span&gt;&lt;span style=&quot;color: rgb(0, 0, 0); background-color: transparent;&quot;&gt;オブジェクト&lt;/span&gt;&lt;/div&gt;" style="rounded=0;whiteSpace=wrap;html=1;fillColor=none;strokeColor=none;fontSize=16;" vertex="1" parent="1">
                    <mxGeometry x="45" y="309" width="162" height="109" as="geometry"/>
                </mxCell>
            </root>
        </mxGraphModel>
    </diagram>
</mxfile>